<svg width="783" height="731" viewBox="0 0 783 731" fill="none" xmlns="http://www.w3.org/2000/svg">
<path opacity="0.9" d="M430.217 171.61L392.756 136.637L355.171 171.726L392.632 206.699L430.217 171.61Z" fill="white"/>
<path opacity="0.8" d="M329.49 265.648L292.029 230.674L254.444 265.763L291.905 300.736L329.49 265.648Z" fill="white"/>
<path opacity="0.9" d="M379.854 218.628L342.393 183.655L304.808 218.744L342.269 253.717L379.854 218.628Z" fill="white"/>
<path opacity="0.7" d="M279.126 312.667L241.665 277.694L204.08 312.783L241.541 347.756L279.126 312.667Z" fill="white"/>
<path opacity="0.9" d="M479.666 217.773L442.205 182.8L404.62 217.889L442.081 252.862L479.666 217.773Z" fill="white"/>
<path opacity="0.7" d="M378.938 311.812L341.477 276.839L303.892 311.928L341.353 346.901L378.938 311.812Z" fill="white"/>
<path opacity="0.8" d="M429.302 264.793L391.841 229.819L354.256 264.908L391.717 299.881L429.302 264.793Z" fill="white"/>
<path opacity="0.6" d="M328.574 358.831L291.113 323.858L253.528 358.947L290.989 393.92L328.574 358.831Z" fill="white"/>
<path opacity="0.8" d="M529.114 263.938L491.653 228.964L454.068 264.053L491.529 299.026L529.114 263.938Z" fill="white"/>
<path opacity="0.6" d="M428.385 357.976L390.925 323.003L353.34 358.092L390.8 393.065L428.385 357.976Z" fill="white"/>
<path opacity="0.7" d="M478.75 310.957L441.289 275.984L403.704 311.073L441.165 346.046L478.75 310.957Z" fill="white"/>
<path opacity="0.5" d="M378.021 404.995L340.56 370.022L302.975 405.111L340.436 440.084L378.021 404.995Z" fill="white"/>
<path opacity="0.7" d="M578.562 310.102L541.101 275.129L503.516 310.218L540.977 345.191L578.562 310.102Z" fill="white"/>
<path opacity="0.5" d="M477.833 404.14L440.372 369.167L402.787 404.256L440.248 439.229L477.833 404.14Z" fill="white"/>
<path opacity="0.6" d="M528.197 357.121L490.737 322.148L453.152 357.237L490.612 392.21L528.197 357.121Z" fill="white"/>
<path opacity="0.4" d="M427.469 451.159L390.008 416.186L352.423 451.275L389.884 486.248L427.469 451.159Z" fill="white"/>
<path d="M431.176 122.432L393.715 87.4587L356.13 122.548L393.591 157.521L431.176 122.432Z" fill="#0B409C"/>
<path opacity="0.8" d="M330.447 216.47L292.986 181.497L255.401 216.586L292.862 251.559L330.447 216.47Z" fill="#0B409C"/>
<path opacity="0.9" d="M380.812 169.451L343.351 134.478L305.766 169.566L343.227 204.54L380.812 169.451Z" fill="#0B409C"/>
<path opacity="0.7" d="M280.084 263.489L242.623 228.516L205.038 263.605L242.499 298.578L280.084 263.489Z" fill="#0B409C"/>
<path opacity="0.9" d="M480.623 168.596L443.162 133.623L405.577 168.711L443.038 203.685L480.623 168.596Z" fill="#0B409C"/>
<path opacity="0.7" d="M379.895 262.634L342.434 227.661L304.849 262.75L342.31 297.723L379.895 262.634Z" fill="#0B409C"/>
<path opacity="0.8" d="M430.26 215.615L392.799 180.641L355.214 215.73L392.675 250.703L430.26 215.615Z" fill="#0B409C"/>
<path opacity="0.6" d="M329.532 309.653L292.071 274.68L254.486 309.769L291.947 344.742L329.532 309.653Z" fill="#0B409C"/>
<path opacity="0.8" d="M530.071 214.76L492.61 179.786L455.025 214.875L492.486 249.849L530.071 214.76Z" fill="#0B409C"/>
<path opacity="0.6" d="M429.343 308.798L391.882 273.825L354.297 308.914L391.758 343.887L429.343 308.798Z" fill="#0B409C"/>
<path opacity="0.7" d="M479.708 261.778L442.247 226.805L404.662 261.894L442.123 296.867L479.708 261.778Z" fill="#0B409C"/>
<path opacity="0.5" d="M378.979 355.817L341.518 320.844L303.934 355.933L341.394 390.906L378.979 355.817Z" fill="#0B409C"/>
<path opacity="0.7" d="M579.519 260.923L542.058 225.95L504.473 261.039L541.934 296.012L579.519 260.923Z" fill="#0B409C"/>
<path opacity="0.5" d="M478.791 354.962L441.33 319.989L403.745 355.078L441.206 390.051L478.791 354.962Z" fill="#0B409C"/>
<path opacity="0.6" d="M529.155 307.942L491.694 272.969L454.109 308.058L491.57 343.031L529.155 307.942Z" fill="#0B409C"/>
<path opacity="0.4" d="M428.427 401.981L390.966 367.008L353.381 402.097L390.842 437.07L428.427 401.981Z" fill="#0B409C"/>
<path d="M196.252 541.802C192.307 541.802 189.316 540.614 187.28 538.238C185.243 535.862 184.225 532.681 184.225 528.693V503.811H174.362V496.493H193.58V529.075C193.58 531.026 194.11 532.384 195.171 533.147C196.231 533.869 197.398 534.229 198.67 534.229C199.434 534.229 200.198 534.144 200.961 533.975C201.767 533.805 202.658 533.55 203.634 533.211L205.67 540.084C204.058 540.593 202.573 540.996 201.216 541.293C199.901 541.632 198.246 541.802 196.252 541.802ZM230.272 541.802C227.006 541.802 224.036 541.165 221.363 539.893C218.733 538.578 216.633 536.69 215.064 534.229C213.536 531.726 212.773 528.735 212.773 525.257C212.773 521.82 213.558 518.872 215.127 516.411C216.697 513.908 218.733 511.999 221.236 510.684C223.739 509.369 226.391 508.711 229.191 508.711C232.457 508.711 235.194 509.39 237.4 510.748C239.606 512.063 241.26 513.866 242.363 516.157C243.509 518.405 244.081 520.972 244.081 523.857C244.081 524.705 244.018 525.532 243.89 526.338C243.806 527.102 243.721 527.675 243.636 528.057H219.709V521.757H237.336L235.872 523.538C235.872 520.993 235.321 519.084 234.218 517.811C233.157 516.496 231.588 515.838 229.509 515.838C227.982 515.838 226.645 516.178 225.5 516.857C224.354 517.535 223.463 518.575 222.827 519.975C222.191 521.375 221.873 523.135 221.873 525.257C221.873 527.42 222.254 529.202 223.018 530.602C223.782 531.959 224.885 532.978 226.327 533.656C227.769 534.335 229.509 534.675 231.545 534.675C232.988 534.675 234.345 534.484 235.618 534.102C236.933 533.72 238.291 533.169 239.69 532.447L242.809 538.111C240.984 539.256 238.969 540.168 236.763 540.847C234.557 541.484 232.394 541.802 230.272 541.802ZM261.684 541.802C259.562 541.802 257.717 541.378 256.147 540.529C254.62 539.681 253.432 538.535 252.584 537.093C251.735 535.65 251.311 534.038 251.311 532.256C251.311 528.735 252.902 526.041 256.084 524.175C259.308 522.308 264.653 521.163 272.12 520.738C271.992 519.763 271.674 518.935 271.165 518.257C270.656 517.578 269.914 517.069 268.938 516.729C268.005 516.348 266.817 516.157 265.374 516.157C264.356 516.157 263.338 516.284 262.32 516.538C261.302 516.751 260.241 517.09 259.138 517.557C258.077 517.981 256.953 518.49 255.765 519.084L252.456 512.975C253.899 512.126 255.405 511.384 256.974 510.748C258.587 510.111 260.241 509.623 261.938 509.284C263.677 508.902 265.438 508.711 267.22 508.711C270.189 508.711 272.735 509.242 274.856 510.302C276.977 511.32 278.611 512.89 279.756 515.011C280.901 517.09 281.474 519.741 281.474 522.966V541.038H273.838L273.138 537.475H272.883C271.314 538.662 269.574 539.681 267.665 540.529C265.756 541.378 263.762 541.802 261.684 541.802ZM264.674 534.547C266.074 534.547 267.389 534.272 268.62 533.72C269.85 533.126 271.017 532.405 272.12 531.556V526.338C269.023 526.508 266.605 526.826 264.865 527.293C263.168 527.76 261.98 528.353 261.302 529.075C260.623 529.796 260.284 530.623 260.284 531.556C260.284 532.193 260.453 532.744 260.793 533.211C261.174 533.678 261.684 534.017 262.32 534.229C262.999 534.441 263.783 534.547 264.674 534.547ZM292.967 541.038V509.475H300.604L301.367 516.348H301.558C303.128 513.76 305.016 511.851 307.222 510.62C309.47 509.348 311.846 508.711 314.349 508.711C315.749 508.711 316.873 508.817 317.722 509.03C318.612 509.242 319.525 509.56 320.458 509.984L318.549 517.811C317.573 517.514 316.682 517.302 315.876 517.175C315.112 517.005 314.137 516.92 312.949 516.92C310.997 516.92 309.067 517.493 307.158 518.638C305.291 519.784 303.679 521.778 302.322 524.62V541.038H292.967ZM328.324 541.038V509.475H335.96L336.66 513.675H336.915C338.272 512.317 339.821 511.151 341.56 510.175C343.342 509.199 345.421 508.711 347.796 508.711C351.36 508.711 353.969 509.857 355.623 512.148C357.278 514.439 358.105 517.578 358.105 521.566V541.038H348.751V522.775C348.751 520.654 348.39 519.105 347.669 518.129C346.99 517.154 345.802 516.666 344.105 516.666C342.833 516.666 341.708 516.963 340.733 517.557C339.799 518.108 338.781 518.914 337.678 519.975V541.038H328.324ZM405.464 541.038L400.309 509.475H409.346L411.318 524.111C411.53 525.638 411.7 527.187 411.827 528.757C411.997 530.284 412.167 531.853 412.337 533.466H412.527C412.74 531.853 412.952 530.263 413.164 528.693C413.418 527.123 413.694 525.596 413.991 524.111L415.964 513.675H422.773L424.809 524.111C425.106 525.638 425.382 527.187 425.636 528.757C425.933 530.284 426.188 531.853 426.4 533.466H426.655C426.867 531.853 427.015 530.284 427.1 528.757C427.227 527.187 427.376 525.638 427.545 524.111L429.327 509.475H437.982L433.145 541.038H422.136L420.418 530.793C420.249 529.393 420.058 527.929 419.846 526.402C419.676 524.875 419.485 523.22 419.273 521.438H419.018C418.891 522.754 418.742 524.154 418.573 525.638C418.403 527.081 418.191 528.799 417.936 530.793L416.282 541.038H405.464ZM457.302 541.802C454.544 541.802 451.935 541.165 449.475 539.893C447.014 538.578 445.02 536.69 443.493 534.229C441.966 531.726 441.202 528.735 441.202 525.257C441.202 521.778 441.966 518.808 443.493 516.348C445.02 513.845 447.014 511.957 449.475 510.684C451.935 509.369 454.544 508.711 457.302 508.711C460.059 508.711 462.669 509.369 465.129 510.684C467.59 511.957 469.584 513.845 471.111 516.348C472.638 518.808 473.402 521.778 473.402 525.257C473.402 528.735 472.638 531.726 471.111 534.229C469.584 536.69 467.59 538.578 465.129 539.893C462.669 541.165 460.059 541.802 457.302 541.802ZM457.302 534.229C458.744 534.229 459.932 533.869 460.866 533.147C461.841 532.426 462.562 531.387 463.029 530.029C463.538 528.672 463.793 527.081 463.793 525.257C463.793 523.432 463.538 521.841 463.029 520.484C462.562 519.126 461.841 518.087 460.866 517.366C459.932 516.645 458.744 516.284 457.302 516.284C455.86 516.284 454.65 516.645 453.675 517.366C452.741 518.087 452.02 519.126 451.511 520.484C451.044 521.841 450.811 523.432 450.811 525.257C450.811 527.081 451.044 528.672 451.511 530.029C452.02 531.387 452.741 532.426 453.675 533.147C454.65 533.869 455.86 534.229 457.302 534.229ZM483.749 541.038V509.475H491.386L492.149 516.348H492.34C493.91 513.76 495.798 511.851 498.004 510.62C500.252 509.348 502.628 508.711 505.131 508.711C506.531 508.711 507.655 508.817 508.504 509.03C509.395 509.242 510.307 509.56 511.24 509.984L509.331 517.811C508.355 517.514 507.464 517.302 506.658 517.175C505.895 517.005 504.919 516.92 503.731 516.92C501.78 516.92 499.849 517.493 497.94 518.638C496.074 519.784 494.461 521.778 493.104 524.62V541.038H483.749ZM539.66 541.802C535.715 541.802 532.724 540.614 530.688 538.238C528.651 535.862 527.633 532.681 527.633 528.693V503.811H517.77V496.493H536.987V529.075C536.987 531.026 537.518 532.384 538.578 533.147C539.639 533.869 540.806 534.229 542.078 534.229C542.842 534.229 543.606 534.144 544.369 533.975C545.175 533.805 546.066 533.55 547.042 533.211L549.078 540.084C547.466 540.593 545.981 540.996 544.624 541.293C543.309 541.632 541.654 541.802 539.66 541.802ZM568.971 541.802C564.983 541.802 561.759 540.338 559.299 537.411C556.881 534.441 555.671 530.39 555.671 525.257C555.671 521.82 556.308 518.872 557.581 516.411C558.896 513.951 560.593 512.063 562.671 510.748C564.75 509.39 566.914 508.711 569.162 508.711C570.902 508.711 572.408 509.008 573.68 509.602C574.953 510.196 576.098 511.023 577.117 512.084H577.371L576.926 507.184V496.43H586.28V541.038H578.644L577.944 537.793H577.753C576.608 538.938 575.25 539.893 573.68 540.656C572.153 541.42 570.583 541.802 568.971 541.802ZM571.389 534.166C572.45 534.166 573.426 533.953 574.317 533.529C575.25 533.063 576.12 532.299 576.926 531.238V518.448C576.077 517.684 575.208 517.154 574.317 516.857C573.468 516.517 572.577 516.348 571.644 516.348C570.499 516.348 569.438 516.666 568.462 517.302C567.486 517.938 566.702 518.914 566.108 520.229C565.556 521.502 565.28 523.135 565.28 525.129C565.28 528.226 565.811 530.517 566.871 532.002C567.932 533.444 569.438 534.166 571.389 534.166Z" fill="#10316B"/>
</svg>
