<svg viewBox="0 0 500 500" version="1.1" id="svg_null"><g id="root" stroke="none" stroke-width="1" fill="none" fill-rule="evenodd"><rect id="background.primary" fill="#f2f7ff" x="0" y="0" width="500" height="500"></rect><rect id="shape" fill="#FFF" opacity=".9" transform="translate(250.762832, 117.419622) rotate(45.000000) translate(-250.762832, -117.419622)" x="233.848" y="100.449" width="33.83" height="33.942"></rect><rect id="shape" fill="#FFF" opacity=".8" transform="translate(186.441067, 181.741387) rotate(45.000000) translate(-186.441067, -181.741387)" x="169.526" y="164.77" width="33.83" height="33.942"></rect><rect id="shape" fill="#FFF" opacity=".9" transform="translate(218.601949, 149.580505) rotate(45.000000) translate(-218.601949, -149.580505)" x="201.687" y="132.609" width="33.83" height="33.942"></rect><rect id="shape" fill="#FFF" opacity=".7" transform="translate(154.280185, 213.902269) rotate(45.000000) translate(-154.280185, -213.902269)" x="137.365" y="196.931" width="33.83" height="33.942"></rect><rect id="shape" fill="#FFF" opacity=".9" transform="translate(282.338651, 148.995442) rotate(45.000000) translate(-282.338651, -148.995442)" x="265.424" y="132.024" width="33.83" height="33.942"></rect><rect id="shape" fill="#FFF" opacity=".7" transform="translate(218.016887, 213.317206) rotate(45.000000) translate(-218.016887, -213.317206)" x="201.102" y="196.346" width="33.83" height="33.942"></rect><rect id="shape" fill="#FFF" opacity=".8" transform="translate(250.177769, 181.156324) rotate(45.000000) translate(-250.177769, -181.156324)" x="233.263" y="164.185" width="33.83" height="33.942"></rect><rect id="shape" fill="#FFF" opacity=".6" transform="translate(185.856004, 245.478089) rotate(45.000000) translate(-185.856004, -245.478089)" x="168.941" y="228.507" width="33.83" height="33.942"></rect><rect id="shape" fill="#FFF" opacity=".8" transform="translate(313.914471, 180.571261) rotate(45.000000) translate(-313.914471, -180.571261)" x="297" y="163.6" width="33.83" height="33.942"></rect><rect id="shape" fill="#FFF" opacity=".6" transform="translate(249.592706, 244.893026) rotate(45.000000) translate(-249.592706, -244.893026)" x="232.678" y="227.922" width="33.83" height="33.942"></rect><rect id="shape" fill="#FFF" opacity=".7" transform="translate(281.753589, 212.732144) rotate(45.000000) translate(-281.753589, -212.732144)" x="264.839" y="195.761" width="33.83" height="33.942"></rect><rect id="shape" fill="#FFF" opacity=".5" transform="translate(217.431824, 277.053908) rotate(45.000000) translate(-217.431824, -277.053908)" x="200.517" y="260.083" width="33.83" height="33.942"></rect><rect id="shape" fill="#FFF" opacity=".7" transform="translate(345.490290, 212.147081) rotate(45.000000) translate(-345.490290, -212.147081)" x="328.576" y="195.176" width="33.83" height="33.942"></rect><rect id="shape" fill="#FFF" opacity=".5" transform="translate(281.168526, 276.468846) rotate(45.000000) translate(-281.168526, -276.468846)" x="264.254" y="259.498" width="33.83" height="33.942"></rect><rect id="shape" fill="#FFF" opacity=".6" transform="translate(313.329408, 244.307963) rotate(45.000000) translate(-313.329408, -244.307963)" x="296.415" y="227.337" width="33.83" height="33.942"></rect><rect id="shape" fill="#FFF" opacity=".4" transform="translate(249.007644, 308.629728) rotate(45.000000) translate(-249.007644, -308.629728)" x="232.093" y="291.659" width="33.83" height="33.942"></rect><g id="Group" transform="translate(250.353553, 179.675884) rotate(45.000000) translate(-250.353553, -179.675884) translate(166.353553, 94.175884)" fill="#4A90E2"><rect id="shape.secondary" x="0" y="0" width="33.83" height="33.942" fill="#0b409c"></rect><rect id="shape.secondary" opacity=".8" x="0" y="90.965" width="33.83" height="33.942" fill="#0b409c"></rect><rect id="shape.secondary" opacity=".9" x="0" y="45.482" width="33.83" height="33.942" fill="#0b409c"></rect><rect id="shape.secondary" opacity=".7" x="0" y="136.447" width="33.83" height="33.942" fill="#0b409c"></rect><rect id="shape.secondary" opacity=".9" x="44.655" y="0" width="33.83" height="33.942" fill="#0b409c"></rect><rect id="shape.secondary" opacity=".7" x="44.655" y="90.965" width="33.83" height="33.942" fill="#0b409c"></rect><rect id="shape.secondary" opacity=".8" x="44.655" y="45.482" width="33.83" height="33.942" fill="#0b409c"></rect><rect id="shape.secondary" opacity=".6" x="44.655" y="136.447" width="33.83" height="33.942" fill="#0b409c"></rect><rect id="shape.secondary" opacity=".8" x="89.31" y="0" width="33.83" height="33.942" fill="#0b409c"></rect><rect id="shape.secondary" opacity=".6" x="89.31" y="90.965" width="33.83" height="33.942" fill="#0b409c"></rect><rect id="shape.secondary" opacity=".7" x="89.31" y="45.482" width="33.83" height="33.942" fill="#0b409c"></rect><rect id="shape.secondary" opacity=".5" x="89.31" y="136.447" width="33.83" height="33.942" fill="#0b409c"></rect><rect id="shape.secondary" opacity=".7" x="133.965" y="0" width="33.83" height="33.942" fill="#0b409c"></rect><rect id="shape.secondary" opacity=".5" x="133.965" y="90.965" width="33.83" height="33.942" fill="#0b409c"></rect><rect id="shape.secondary" opacity=".6" x="133.965" y="45.482" width="33.83" height="33.942" fill="#0b409c"></rect><rect id="shape.secondary" opacity=".4" x="133.965" y="136.447" width="33.83" height="33.942" fill="#0b409c"></rect></g><g id="Group-2" transform="translate(40.000000, 352.000000)"><rect id="Rectangle" x="0" y="0" width="420" height="75"></rect><text id="headerText.accent" font-family="Source Code Pro" font-size="63.635476985566186" font-weight="900" line-spacing="75" fill="#10316b" data-text-alignment="C" font-style="normal" letter-spacing="NaN"><tspan x="0.0233306884765625" y="59.5">learn world</tspan></text></g></g></svg>