<svg width="522" height="522" viewBox="0 0 522 522" fill="none" xmlns="http://www.w3.org/2000/svg">
<g filter="url(#filter0_d_1_80)">
<path opacity="0.9" d="M316.116 108.197L265.135 63.0906L213.985 108.346L264.966 153.453L316.116 108.197Z" fill="white"/>
<path opacity="0.8" d="M179.035 229.481L128.054 184.375L76.904 229.631L127.885 274.737L179.035 229.481Z" fill="white"/>
<path opacity="0.9" d="M247.576 168.838L196.595 123.732L145.445 168.988L196.427 214.094L247.576 168.838Z" fill="white"/>
<path opacity="0.7" d="M110.493 290.124L59.5123 245.018L8.36241 290.273L59.3436 335.38L110.493 290.124Z" fill="white"/>
<path opacity="0.9" d="M383.412 167.736L332.431 122.629L281.281 167.885L332.262 212.991L383.412 167.736Z" fill="white"/>
<path opacity="0.7" d="M246.329 289.021L195.348 243.915L144.198 289.171L195.179 334.277L246.329 289.021Z" fill="white"/>
<path opacity="0.8" d="M314.87 228.378L263.889 183.272L212.739 228.528L263.72 273.634L314.87 228.378Z" fill="white"/>
<path opacity="0.6" d="M177.787 349.664L126.806 304.558L75.6564 349.813L126.638 394.92L177.787 349.664Z" fill="white"/>
<path opacity="0.8" d="M450.706 227.276L399.725 182.169L348.575 227.425L399.556 272.532L450.706 227.276Z" fill="white"/>
<path opacity="0.6" d="M313.623 348.561L262.642 303.455L211.492 348.711L262.473 393.817L313.623 348.561Z" fill="white"/>
<path opacity="0.7" d="M382.164 287.919L331.183 242.812L280.033 288.068L331.014 333.174L382.164 287.919Z" fill="white"/>
<path opacity="0.5" d="M245.081 409.204L194.1 364.098L142.95 409.353L193.932 454.46L245.081 409.204Z" fill="white"/>
<path opacity="0.7" d="M518 286.816L467.019 241.709L415.869 286.965L466.85 332.072L518 286.816Z" fill="white"/>
<path opacity="0.5" d="M380.917 408.101L329.936 362.995L278.786 408.251L329.767 453.357L380.917 408.101Z" fill="white"/>
<path opacity="0.6" d="M449.458 347.459L398.477 302.352L347.327 347.608L398.309 392.714L449.458 347.459Z" fill="white"/>
<path opacity="0.4" d="M312.376 468.744L261.395 423.638L210.245 468.894L261.226 514L312.376 468.744Z" fill="white"/>
<path d="M311.754 45.1064L260.773 0L209.623 45.2557L260.604 90.3622L311.754 45.1064Z" fill="#0B409C"/>
<path opacity="0.8" d="M174.671 166.392L123.69 121.286L72.5403 166.542L123.521 211.648L174.671 166.392Z" fill="#0B409C"/>
<path opacity="0.9" d="M243.214 105.749L192.232 60.6423L141.082 105.898L192.064 151.004L243.214 105.749Z" fill="#0B409C"/>
<path opacity="0.7" d="M106.131 227.035L55.15 181.928L4.0001 227.184L54.9812 272.291L106.131 227.035Z" fill="#0B409C"/>
<path opacity="0.9" d="M379.048 104.646L328.067 59.5397L276.917 104.795L327.898 149.902L379.048 104.646Z" fill="#0B409C"/>
<path opacity="0.7" d="M241.966 225.932L190.985 180.826L139.835 226.081L190.816 271.188L241.966 225.932Z" fill="#0B409C"/>
<path opacity="0.8" d="M310.508 165.288L259.526 120.182L208.377 165.438L259.358 210.544L310.508 165.288Z" fill="#0B409C"/>
<path opacity="0.6" d="M173.426 286.574L122.444 241.468L71.2945 286.724L122.276 331.83L173.426 286.574Z" fill="#0B409C"/>
<path opacity="0.8" d="M446.342 164.186L395.361 119.079L344.211 164.335L395.192 209.441L446.342 164.186Z" fill="#0B409C"/>
<path opacity="0.6" d="M309.26 285.472L258.279 240.365L207.129 285.621L258.11 330.727L309.26 285.472Z" fill="#0B409C"/>
<path opacity="0.7" d="M377.802 224.828L326.821 179.722L275.671 224.977L326.652 270.084L377.802 224.828Z" fill="#0B409C"/>
<path opacity="0.5" d="M240.719 346.114L189.738 301.008L138.588 346.263L189.569 391.37L240.719 346.114Z" fill="#0B409C"/>
<path opacity="0.7" d="M513.637 223.725L462.656 178.619L411.506 223.875L462.487 268.981L513.637 223.725Z" fill="#0B409C"/>
<path opacity="0.5" d="M376.554 345.011L325.573 299.905L274.423 345.161L325.404 390.267L376.554 345.011Z" fill="#0B409C"/>
<path opacity="0.6" d="M445.096 284.368L394.115 239.261L342.965 284.517L393.946 329.623L445.096 284.368Z" fill="#0B409C"/>
<path opacity="0.4" d="M308.014 405.654L257.032 360.547L205.883 405.803L256.864 450.91L308.014 405.654Z" fill="#0B409C"/>
</g>
<defs>
<filter id="filter0_d_1_80" x="0.00012207" y="0" width="522" height="522" filterUnits="userSpaceOnUse" color-interpolation-filters="sRGB">
<feFlood flood-opacity="0" result="BackgroundImageFix"/>
<feColorMatrix in="SourceAlpha" type="matrix" values="0 0 0 0 0 0 0 0 0 0 0 0 0 0 0 0 0 0 127 0" result="hardAlpha"/>
<feOffset dy="4"/>
<feGaussianBlur stdDeviation="2"/>
<feComposite in2="hardAlpha" operator="out"/>
<feColorMatrix type="matrix" values="0 0 0 0 0 0 0 0 0 0 0 0 0 0 0 0 0 0 0.25 0"/>
<feBlend mode="normal" in2="BackgroundImageFix" result="effect1_dropShadow_1_80"/>
<feBlend mode="normal" in="SourceGraphic" in2="effect1_dropShadow_1_80" result="shape"/>
</filter>
</defs>
</svg>
